<mxfile host="Electron" modified="2024-04-28T19:08:52.504Z" agent="Mozilla/5.0 (Windows NT 10.0; Win64; x64) AppleWebKit/537.36 (KHTML, like Gecko) draw.io/24.2.5 Chrome/120.0.6099.109 Electron/28.1.0 Safari/537.36" etag="1nHybjWbrMZRP_0TuN0o" version="24.2.5" type="device">
  <diagram name="Page-1" id="o65vilw3Pug-pLH16Nbn">
    <mxGraphModel dx="2074" dy="1196" grid="1" gridSize="10" guides="1" tooltips="1" connect="1" arrows="1" fold="1" page="1" pageScale="1" pageWidth="850" pageHeight="1100" math="0" shadow="0">
      <root>
        <mxCell id="0" />
        <mxCell id="1" parent="0" />
        <mxCell id="uLF2nfVqeSq94Ol26W6c-41" style="edgeStyle=orthogonalEdgeStyle;rounded=0;orthogonalLoop=1;jettySize=auto;html=1;" parent="1" source="yqtdJIzbsoDZmMNoD9rc-11" target="yqtdJIzbsoDZmMNoD9rc-19" edge="1">
          <mxGeometry relative="1" as="geometry" />
        </mxCell>
        <mxCell id="yqtdJIzbsoDZmMNoD9rc-11" value="&lt;font style=&quot;font-size: 20px;&quot;&gt;LLM&lt;/font&gt;" style="rounded=1;whiteSpace=wrap;html=1;fillColor=#dae8fc;strokeColor=#6c8ebf;" parent="1" vertex="1">
          <mxGeometry x="439" y="200" width="160" height="170" as="geometry" />
        </mxCell>
        <mxCell id="yqtdJIzbsoDZmMNoD9rc-19" value="&lt;b&gt;&lt;font style=&quot;font-size: 24px;&quot;&gt;Output&lt;/font&gt;&lt;/b&gt;" style="text;html=1;align=center;verticalAlign=middle;whiteSpace=wrap;rounded=0;" parent="1" vertex="1">
          <mxGeometry x="639" y="265" width="90" height="40" as="geometry" />
        </mxCell>
        <mxCell id="uLF2nfVqeSq94Ol26W6c-11" value="" style="group" parent="1" vertex="1" connectable="0">
          <mxGeometry x="250" y="245" width="120" height="80" as="geometry" />
        </mxCell>
        <mxCell id="yqtdJIzbsoDZmMNoD9rc-13" value="&lt;font style=&quot;font-size: 20px;&quot;&gt;Audio&lt;/font&gt;&lt;div&gt;&lt;span style=&quot;font-size: 20px; background-color: initial;&quot;&gt;Encoder&lt;/span&gt;&lt;/div&gt;" style="rounded=1;whiteSpace=wrap;html=1;fillColor=#f8cecc;strokeColor=#b85450;" parent="uLF2nfVqeSq94Ol26W6c-11" vertex="1">
          <mxGeometry width="120" height="80" as="geometry" />
        </mxCell>
        <mxCell id="uLF2nfVqeSq94Ol26W6c-10" value="" style="shape=mxgraph.signs.nature.snowflake;html=1;pointerEvents=1;fillColor=#000000;strokeColor=none;verticalLabelPosition=bottom;verticalAlign=top;align=center;" parent="uLF2nfVqeSq94Ol26W6c-11" vertex="1">
          <mxGeometry x="90" y="10" width="20" height="20" as="geometry" />
        </mxCell>
        <mxCell id="LLAaTYuwsXE8uLvqrSpA-2" style="edgeStyle=orthogonalEdgeStyle;rounded=0;orthogonalLoop=1;jettySize=auto;html=1;entryX=0;entryY=0.5;entryDx=0;entryDy=0;" edge="1" parent="1" source="uLF2nfVqeSq94Ol26W6c-16" target="yqtdJIzbsoDZmMNoD9rc-13">
          <mxGeometry relative="1" as="geometry">
            <mxPoint x="230" y="320" as="targetPoint" />
          </mxGeometry>
        </mxCell>
        <mxCell id="LLAaTYuwsXE8uLvqrSpA-5" style="edgeStyle=orthogonalEdgeStyle;rounded=0;orthogonalLoop=1;jettySize=auto;html=1;entryX=0;entryY=0.5;entryDx=0;entryDy=0;" edge="1" parent="1" source="uLF2nfVqeSq94Ol26W6c-16" target="yqtdJIzbsoDZmMNoD9rc-11">
          <mxGeometry relative="1" as="geometry">
            <Array as="points">
              <mxPoint x="220" y="285" />
              <mxPoint x="220" y="360" />
              <mxPoint x="400" y="360" />
              <mxPoint x="400" y="285" />
            </Array>
          </mxGeometry>
        </mxCell>
        <mxCell id="uLF2nfVqeSq94Ol26W6c-16" value="&lt;b&gt;&lt;font style=&quot;font-size: 24px;&quot;&gt;Input&lt;/font&gt;&lt;/b&gt;" style="text;html=1;align=center;verticalAlign=middle;whiteSpace=wrap;rounded=0;" parent="1" vertex="1">
          <mxGeometry x="110" y="265" width="90" height="40" as="geometry" />
        </mxCell>
        <mxCell id="LLAaTYuwsXE8uLvqrSpA-3" style="edgeStyle=orthogonalEdgeStyle;rounded=0;orthogonalLoop=1;jettySize=auto;html=1;entryX=0;entryY=0.5;entryDx=0;entryDy=0;" edge="1" parent="1" source="yqtdJIzbsoDZmMNoD9rc-13" target="yqtdJIzbsoDZmMNoD9rc-11">
          <mxGeometry relative="1" as="geometry" />
        </mxCell>
      </root>
    </mxGraphModel>
  </diagram>
</mxfile>
